<?xml version="1.0" encoding="UTF-8"?>
<svg id="_图层_1" data-name="图层_1" xmlns="http://www.w3.org/2000/svg" version="1.1" viewBox="0 0 256 256">
  <!-- Generator: Adobe Illustrator 29.6.1, SVG Export Plug-In . SVG Version: 2.1.1 Build 9)  -->
  <defs>
    <style>
      .st0 {
        fill: #1c1c1d;
      }

      .st1 {
        fill: #fff;
      }
    </style>
  </defs>
  <path class="st1" d="M50.36,129.93h13.63c.13,20.19.08,40.39.09,60.58.07,4.13-1,8.72-4.51,11.3-3.86,3-9,2-13.54,2.17-1.8-3.87-3.54-7.77-5.15-11.73,2.4,0,4.8.06,7.19-.08,1.16.05,2.14-.85,2.19-2.01,0-.2-.01-.4-.06-.59.1-19.89-.01-39.77.16-59.64Z"/>
  <path class="st1" d="M106.44,129.03c4.68-.07,9.36,0,14,0-2.44,6.23-5.9,12.1-7.8,18.5,3.92,1.66,8.75.27,13,.77-3.49,8.16-7.39,16.15-10.68,24.41,3,.61,6.16.39,9.25.39-1.7,3.89-3.44,7.75-5.17,11.62-5.3-.09-10.61.22-15.9-.14-2.92,0-5.59-3-4.52-5.92,1.93-5.92,4.94-11.41,7.23-17.19-3.3-.22-7.25.72-9.94-1.72-2.1-2.09-.88-5.15.11-7.46,3.54-7.73,7.01-15.49,10.42-23.26Z"/>
  <path class="st1" d="M179.19,129.08h13.84v5.2c6.64-.26,14.37-.24,19.17,5.14,5.15,5.69,3.48,13.9,3.78,20.88,5,.09,10.59,1.27,13.68,5.61,3.63,5.12,2.2,11.73,2.49,17.58-.19,5.57,1.19,12.3-3.41,16.56-4.84,5.23-12.6,3.63-18.95,4-1.93-3.91-3.58-7.94-5.28-11.95,3.86-.11,7.72.15,11.57-.13,1.25-.08,2.19-1.14,2.12-2.39.18-3.69.18-7.39,0-11.08.07-2.61-2.64-4.27-5-4.07-6.74-.1-13.47,0-20.21,0,0,9.86,0,19.72,0,29.57h-13.85v-29.59h-13.84v-13.9c4.6,0,9.21,0,13.81-.07.09-4,.09-8.03,0-12.08-3.06-.05-6.12-.09-9.19-.06v-13.93h9.18l.09-5.29ZM192.96,148.26c0,4.07.03,8.13.09,12.2h9.34c0-3.66.24-7.33-.14-11-2.29-2.42-6.29-.77-9.29-1.2Z"/>
  <path class="st1" d="M129.77,134.3h31.72v13.93h-8.72v41.77c4.45.05,8.91,0,13.36.05v13.9h-46.44c2.09-4.64,4.19-9.28,6.34-13.9,4.15,0,8.31,0,12.46-.05v-41.74h-8.69c-.04-4.67-.05-9.32-.03-13.96Z"/>
  <path class="st1" d="M221.12,135.58c3.5-2.9,9.31-1,10.62,3.27,1.67,3.92-1.46,8.77-5.62,9.15-2.59.23-5.19.1-7.78.09.17-4.19-1.1-9.6,2.78-12.51Z"/>
  <path class="st1" d="M27.19,148.21c4.57,0,9.13.07,13.69-.11-.28,7.81-1.15,15.6-1.64,23.4-.58,9.17-2.66,18.61-8.26,26.1-2.5-5.28-4.84-10.63-7.18-16,.72-1.95,1.17-3.99,1.32-6.06.63-9.05,1.34-18.21,2.07-27.33Z"/>
  <path class="st1" d="M73.29,148.21h13.83c.7,9.09,1.42,18.18,2.08,27.27.14,2.1.58,4.18,1.32,6.15-2.34,5.35-4.7,10.69-7.17,16-5.18-6.91-7.37-15.55-8.1-24s-1.29-16.96-1.96-25.42Z"/>
  <path class="st1" d="M90.45,202.9c2.11-4.67,4.25-9.32,6.4-13.95,7.13,1.83,14.53.79,21.8,1.07-2.08,4.66-4.21,9.3-6.35,13.93-7.27-.39-14.77,1.04-21.85-1.05Z"/>
  <path class="st0" d="M50.36,52.86h13.63c.13,20.19.08,40.39.09,60.58.07,4.13-1,8.72-4.51,11.3-3.86,3-9,2-13.54,2.17-1.8-3.87-3.54-7.77-5.15-11.73,2.4,0,4.8.06,7.19-.08,1.16.05,2.14-.85,2.19-2.01,0-.2-.01-.4-.06-.59.1-19.89-.01-39.77.16-59.64Z"/>
  <path class="st0" d="M106.44,51.96c4.68-.07,9.36,0,14,0-2.44,6.23-5.9,12.1-7.8,18.5,3.92,1.66,8.75.27,13,.77-3.49,8.16-7.39,16.15-10.68,24.41,3,.61,6.16.39,9.25.39-1.7,3.89-3.44,7.75-5.17,11.62-5.3-.09-10.61.22-15.9-.14-2.92,0-5.59-3-4.52-5.92,1.93-5.92,4.94-11.41,7.23-17.19-3.3-.22-7.25.72-9.94-1.72-2.1-2.09-.88-5.15.11-7.46,3.54-7.73,7.01-15.49,10.42-23.26Z"/>
  <path class="st0" d="M179.19,52.01h13.84v5.2c6.64-.26,14.37-.24,19.17,5.14,5.15,5.69,3.48,13.9,3.78,20.88,5,.09,10.59,1.27,13.68,5.61,3.63,5.12,2.2,11.73,2.49,17.58-.19,5.57,1.19,12.3-3.41,16.56-4.84,5.23-12.6,3.63-18.95,4-1.93-3.91-3.58-7.94-5.28-11.95,3.86-.11,7.72.15,11.57-.13,1.25-.08,2.19-1.14,2.12-2.39.18-3.69.18-7.39,0-11.08.07-2.61-2.64-4.27-5-4.07-6.74-.1-13.47,0-20.21,0,0,9.86,0,19.72,0,29.57h-13.85v-29.59h-13.84v-13.9c4.6,0,9.21,0,13.81-.07.09-4,.09-8.03,0-12.08-3.06-.05-6.12-.09-9.19-.06v-13.93h9.18l.09-5.29ZM192.96,71.19c0,4.07.03,8.13.09,12.2h9.34c0-3.66.24-7.33-.14-11-2.29-2.42-6.29-.77-9.29-1.2Z"/>
  <path class="st0" d="M129.77,57.23h31.72v13.93h-8.72v41.77c4.45.05,8.91,0,13.36.05v13.9h-46.44c2.09-4.64,4.19-9.28,6.34-13.9,4.15,0,8.31,0,12.46-.05v-41.74h-8.69c-.04-4.67-.05-9.32-.03-13.96Z"/>
  <path class="st0" d="M221.12,58.51c3.5-2.9,9.31-1,10.62,3.27,1.67,3.92-1.46,8.77-5.62,9.15-2.59.23-5.19.1-7.78.09.17-4.19-1.1-9.6,2.78-12.51Z"/>
  <path class="st0" d="M27.19,71.14c4.57,0,9.13.07,13.69-.11-.28,7.81-1.15,15.6-1.64,23.4-.58,9.17-2.66,18.61-8.26,26.1-2.5-5.28-4.84-10.63-7.18-16,.72-1.95,1.17-3.99,1.32-6.06.63-9.05,1.34-18.21,2.07-27.33Z"/>
  <path class="st0" d="M73.29,71.14h13.83c.7,9.09,1.42,18.18,2.08,27.27.14,2.1.58,4.18,1.32,6.15-2.34,5.35-4.7,10.69-7.17,16-5.18-6.91-7.37-15.55-8.1-24s-1.29-16.96-1.96-25.42Z"/>
  <path class="st0" d="M90.45,125.83c2.11-4.67,4.25-9.32,6.4-13.95,7.13,1.83,14.53.79,21.8,1.07-2.08,4.66-4.21,9.3-6.35,13.93-7.27-.39-14.77,1.04-21.85-1.05Z"/>
</svg>